<svg preserveAspectRatio="none" width="100%" height="100%" overflow="visible" style="display: block;" viewBox="0 0 24 24" fill="none" xmlns="http://www.w3.org/2000/svg">
<g id="Frame">
<path id="Vector" d="M10.9856 17.6944C11.0905 17.7989 11.1737 17.9231 11.2305 18.0598C11.2873 18.1966 11.3165 18.3432 11.3165 18.4912C11.3165 18.6393 11.2873 18.7859 11.2305 18.9227C11.1737 19.0594 11.0905 19.1836 10.9856 19.2881L10.5056 19.7681C9.99609 20.2795 9.39023 20.6849 8.72306 20.9607C8.0559 21.2365 7.34067 21.3773 6.61875 21.375C5.53156 21.3753 4.4687 21.0532 3.56462 20.4494C2.66055 19.8455 1.95589 18.9871 1.53979 17.9827C1.12369 16.9783 1.01486 15.873 1.22706 14.8067C1.43925 13.7405 1.96294 12.7611 2.73188 11.9925L5.98969 8.73469C6.68263 8.04185 7.54816 7.54682 8.49667 7.30083C9.44518 7.05485 10.4422 7.06685 11.3845 7.33561C12.3268 7.60436 13.1802 8.1201 13.8562 8.82942C14.5323 9.53874 15.0065 10.4159 15.2297 11.37C15.2667 11.5151 15.2743 11.6661 15.2522 11.8141C15.23 11.9622 15.1786 12.1043 15.1008 12.2323C15.023 12.3602 14.9205 12.4713 14.7992 12.5591C14.678 12.6469 14.5404 12.7096 14.3946 12.7435C14.2488 12.7774 14.0977 12.7819 13.9501 12.7567C13.8025 12.7315 13.6615 12.6771 13.5352 12.5967C13.4089 12.5163 13.3 12.4115 13.2147 12.2884C13.1295 12.1653 13.0697 12.0265 13.0388 11.88C12.9063 11.3168 12.6258 10.7992 12.2263 10.3806C11.8268 9.96212 11.3228 9.65791 10.7663 9.49944C10.2098 9.34096 9.62115 9.33399 9.06109 9.47924C8.50103 9.62449 7.98993 9.91669 7.58063 10.3256L4.32281 13.5834C3.8687 14.0372 3.55934 14.6154 3.43386 15.245C3.30838 15.8746 3.37242 16.5272 3.61788 17.1204C3.86334 17.7136 4.27919 18.2206 4.81285 18.5774C5.3465 18.9343 5.97398 19.1248 6.61594 19.125C7.04248 19.1262 7.46502 19.0428 7.85911 18.8796C8.25321 18.7165 8.61103 18.4767 8.91188 18.1744L9.39094 17.6944C9.49547 17.5894 9.61972 17.506 9.75655 17.4492C9.89339 17.3923 10.0401 17.363 10.1883 17.363C10.3365 17.363 10.4832 17.3923 10.62 17.4492C10.7568 17.506 10.8811 17.5894 10.9856 17.6944ZM21.2653 4.23469C20.2342 3.20392 18.8359 2.62487 17.378 2.62487C15.92 2.62487 14.5217 3.20392 13.4906 4.23469L13.0116 4.71375C12.8002 4.92509 12.6815 5.21174 12.6815 5.51062C12.6815 5.80951 12.8002 6.09615 13.0116 6.3075C13.2229 6.51884 13.5096 6.63758 13.8084 6.63758C14.1073 6.63758 14.394 6.51884 14.6053 6.3075L15.0853 5.8275C15.6945 5.21833 16.5207 4.8761 17.3822 4.8761C18.2437 4.8761 19.0699 5.21833 19.6791 5.8275C20.2882 6.43667 20.6305 7.26288 20.6305 8.12437C20.6305 8.98587 20.2882 9.81208 19.6791 10.4212L16.4156 13.6744C16.1148 13.9768 15.757 14.2166 15.3629 14.3798C14.9688 14.543 14.5462 14.6263 14.1197 14.625C13.388 14.6245 12.6779 14.3768 12.1046 13.9221C11.5313 13.4674 11.1284 12.8324 10.9613 12.12C10.8936 11.8293 10.7133 11.5774 10.4599 11.4197C10.2066 11.262 9.90097 11.2114 9.61031 11.2791C9.31965 11.3467 9.06776 11.527 8.91006 11.7804C8.75235 12.0337 8.70175 12.3393 8.76938 12.63C9.05166 13.8364 9.73322 14.9122 10.7035 15.6827C11.6738 16.4532 12.876 16.8734 14.115 16.875H14.1197C14.842 16.877 15.5574 16.7357 16.2248 16.4594C16.8921 16.1831 17.498 15.7773 18.0075 15.2653L21.2653 12.0075C21.7758 11.4972 22.1807 10.8913 22.4569 10.2244C22.7332 9.55761 22.8754 8.84289 22.8754 8.12109C22.8754 7.3993 22.7332 6.68458 22.4569 6.01774C22.1807 5.3509 21.7758 4.74502 21.2653 4.23469Z" fill="url(#paint0_linear_670_15412)"/>
</g>
<defs>
<linearGradient id="paint0_linear_670_15412" x1="11.9984" y1="2.62487" x2="11.9984" y2="21.375" gradientUnits="userSpaceOnUse">
<stop stop-color="#00F243"/>
<stop offset="1" stop-color="#E5FF0D"/>
</linearGradient>
</defs>
</svg>
