<svg preserveAspectRatio="none" width="100%" height="100%" overflow="visible" style="display: block;" viewBox="0 0 16 16" fill="none" xmlns="http://www.w3.org/2000/svg">
<g id="coin">
<path id="Vector" d="M14.6133 11.1667C14.3933 12.94 12.94 14.3933 11.1667 14.6133C10.0933 14.7467 9.09333 14.4533 8.31333 13.88C7.86667 13.5533 7.97333 12.86 8.50667 12.7C10.5133 12.0933 12.0933 10.5067 12.7067 8.5C12.8667 7.97333 13.56 7.86667 13.8867 8.30667C14.4533 9.09333 14.7467 10.0933 14.6133 11.1667Z" fill="var(--fill-0, white)"/>
<path id="Vector_2" d="M6.66 1.33333C3.72 1.33333 1.33333 3.72 1.33333 6.66C1.33333 9.6 3.72 11.9867 6.66 11.9867C9.6 11.9867 11.9867 9.6 11.9867 6.66C11.98 3.72 9.6 1.33333 6.66 1.33333ZM6.03333 5.91333L7.64 6.47333C8.22 6.68 8.5 7.08667 8.5 7.71333C8.5 8.43333 7.92667 9.02667 7.22667 9.02667H7.16667V9.06C7.16667 9.33333 6.94 9.56 6.66667 9.56C6.39333 9.56 6.16667 9.33333 6.16667 9.06V9.02C5.42667 8.98667 4.83333 8.36667 4.83333 7.59333C4.83333 7.32 5.06 7.09333 5.33333 7.09333C5.60667 7.09333 5.83333 7.32 5.83333 7.59333C5.83333 7.83333 6.00667 8.02667 6.22 8.02667H7.22C7.37333 8.02667 7.49333 7.88667 7.49333 7.71333C7.49333 7.48 7.45333 7.46667 7.3 7.41333L5.69333 6.85333C5.12 6.65333 4.83333 6.24667 4.83333 5.61333C4.83333 4.89333 5.40667 4.3 6.10667 4.3H6.16667V4.27333C6.16667 4 6.39333 3.77333 6.66667 3.77333C6.94 3.77333 7.16667 4 7.16667 4.27333V4.31333C7.90667 4.34667 8.5 4.96667 8.5 5.74C8.5 6.01333 8.27333 6.24 8 6.24C7.72667 6.24 7.5 6.01333 7.5 5.74C7.5 5.5 7.32667 5.30667 7.11333 5.30667H6.11333C5.96 5.30667 5.84 5.44667 5.84 5.62C5.83333 5.84667 5.87333 5.86 6.03333 5.91333Z" fill="var(--fill-0, white)"/>
<g id="Vector_3" opacity="0">
</g>
</g>
</svg>
