<svg preserveAspectRatio="none" width="100%" height="100%" overflow="visible" style="display: block;" viewBox="0 0 26 26" fill="none" xmlns="http://www.w3.org/2000/svg">
<g id="qr-code-fill 1">
<path id="Vector" d="M17.3333 18.4167V17.3333H14.0833V14.0833H17.3333V16.25H19.5V18.4167H18.4167V20.5833H16.25V22.75H14.0833V19.5H16.25V18.4167H17.3333ZM22.75 22.75H18.4167V20.5833H20.5833V18.4167H22.75V22.75ZM3.25 3.25H11.9167V11.9167H3.25V3.25ZM14.0833 3.25H22.75V11.9167H14.0833V3.25ZM3.25 14.0833H11.9167V22.75H3.25V14.0833ZM19.5 14.0833H22.75V16.25H19.5V14.0833ZM6.5 6.5V8.66667H8.66667V6.5H6.5ZM6.5 17.3333V19.5H8.66667V17.3333H6.5ZM17.3333 6.5V8.66667H19.5V6.5H17.3333Z" fill="var(--fill-0, #FFCE3C)"/>
</g>
</svg>
