<svg preserveAspectRatio="none" width="100%" height="100%" overflow="visible" style="display: block;" viewBox="0 0 24 24" fill="none" xmlns="http://www.w3.org/2000/svg">
<g id="user-octagon">
<g id="Vector" opacity="0">
</g>
<path id="Vector_2" opacity="0.4" d="M21.08 8.58003V15.42C21.08 16.54 20.48 17.58 19.51 18.15L13.57 21.58C12.6 22.14 11.4 22.14 10.42 21.58L4.48 18.15C3.51 17.59 2.91 16.55 2.91 15.42V8.58003C2.91 7.46003 3.51 6.41999 4.48 5.84999L10.42 2.42C11.39 1.86 12.59 1.86 13.57 2.42L19.51 5.84999C20.48 6.41999 21.08 7.45003 21.08 8.58003Z" fill="var(--fill-0, white)"/>
<g id="Group">
<path id="Vector_3" d="M12 12C13.2868 12 14.33 10.9568 14.33 9.66998C14.33 8.38316 13.2868 7.34003 12 7.34003C10.7132 7.34003 9.67 8.38316 9.67 9.66998C9.67 10.9568 10.7132 12 12 12Z" fill="var(--fill-0, white)"/>
<path id="Vector_4" d="M14.68 16.66C15.49 16.66 15.96 15.76 15.51 15.09C14.83 14.08 13.51 13.4 12 13.4C10.49 13.4 9.17 14.08 8.49 15.09C8.04 15.76 8.51 16.66 9.32 16.66H14.68Z" fill="var(--fill-0, white)"/>
</g>
</g>
</svg>
