<svg preserveAspectRatio="none" width="100%" height="100%" overflow="visible" style="display: block;" viewBox="0 0 24 24" fill="none" xmlns="http://www.w3.org/2000/svg">
<g id="people">
<path id="Vector" opacity="0.4" d="M17.9976 7.16C17.9376 7.15 17.8676 7.15 17.8076 7.16C16.4276 7.11 15.3276 5.98 15.3276 4.58C15.3276 3.15 16.4776 2 17.9076 2C19.3376 2 20.4876 3.16 20.4876 4.58C20.4776 5.98 19.3776 7.11 17.9976 7.16Z" stroke="var(--stroke-0, white)" stroke-width="1.5" stroke-linecap="round" stroke-linejoin="round"/>
<path id="Vector_2" opacity="0.4" d="M16.9675 14.44C18.3375 14.67 19.8475 14.43 20.9075 13.72C22.3175 12.78 22.3175 11.24 20.9075 10.3C19.8375 9.59001 18.3075 9.35 16.9375 9.59" stroke="var(--stroke-0, white)" stroke-width="1.5" stroke-linecap="round" stroke-linejoin="round"/>
<path id="Vector_3" opacity="0.4" d="M5.9675 7.16C6.0275 7.15 6.0975 7.15 6.1575 7.16C7.5375 7.11 8.6375 5.98 8.6375 4.58C8.6375 3.15 7.4875 2 6.0575 2C4.6275 2 3.4775 3.16 3.4775 4.58C3.4875 5.98 4.5875 7.11 5.9675 7.16Z" stroke="var(--stroke-0, white)" stroke-width="1.5" stroke-linecap="round" stroke-linejoin="round"/>
<path id="Vector_4" opacity="0.4" d="M6.9975 14.44C5.6275 14.67 4.1175 14.43 3.0575 13.72C1.6475 12.78 1.6475 11.24 3.0575 10.3C4.1275 9.59001 5.6575 9.35 7.0275 9.59" stroke="var(--stroke-0, white)" stroke-width="1.5" stroke-linecap="round" stroke-linejoin="round"/>
<g id="Group">
<path id="Vector_5" d="M12 14.63C11.94 14.62 11.87 14.62 11.81 14.63C10.43 14.58 9.33 13.45 9.33 12.05C9.33 10.62 10.48 9.47 11.91 9.47C13.34 9.47 14.49 10.63 14.49 12.05C14.48 13.45 13.38 14.59 12 14.63Z" stroke="var(--stroke-0, white)" stroke-width="1.5" stroke-linecap="round" stroke-linejoin="round"/>
<path id="Vector_6" d="M9.09 17.78C7.68 18.72 7.68 20.26 9.09 21.2C10.69 22.27 13.31 22.27 14.91 21.2C16.32 20.26 16.32 18.72 14.91 17.78C13.32 16.72 10.69 16.72 9.09 17.78Z" stroke="var(--stroke-0, white)" stroke-width="1.5" stroke-linecap="round" stroke-linejoin="round"/>
</g>
<g id="Vector_7" opacity="0">
</g>
</g>
</svg>
