<svg preserveAspectRatio="none" width="100%" height="100%" overflow="visible" style="display: block;" viewBox="0 0 12 12" fill="none" xmlns="http://www.w3.org/2000/svg">
<g id="Frame">
<path id="Vector" d="M7.49913 1.43699C7.71478 1.43699 7.92179 1.52284 8.07432 1.67527C8.22688 1.82783 8.3126 2.03472 8.3126 2.25047C8.3126 2.46622 8.22688 2.67311 8.07432 2.82567L4.89952 6.00047L8.07432 9.17527L8.12901 9.23484C8.24758 9.37959 8.3126 9.56172 8.3126 9.75047C8.3126 9.96622 8.22688 10.1731 8.07432 10.3257C7.92179 10.4781 7.71478 10.5639 7.49913 10.5639C7.28352 10.5638 7.07639 10.4781 6.92393 10.3257L3.17393 6.57567L3.17491 6.57469C3.09942 6.49933 3.03907 6.4105 2.99815 6.31199C2.95714 6.21323 2.93565 6.10741 2.93565 6.00047C2.93565 5.89353 2.95714 5.78771 2.99815 5.68895C3.03915 5.59023 3.09919 5.50073 3.17491 5.42527H3.17393L6.92393 1.67527C7.07639 1.52281 7.28353 1.4371 7.49913 1.43699Z" fill="var(--fill-0, #00F893)" stroke="var(--stroke-0, #00F893)" stroke-width="0.5"/>
</g>
</svg>
