<svg preserveAspectRatio="none" width="100%" height="100%" overflow="visible" style="display: block;" viewBox="0 0 120 10" fill="none" xmlns="http://www.w3.org/2000/svg">
<g id="Group 2147227861">
<path id="Union" d="M5 0C7.76142 0 10 2.23858 10 5C10 7.76142 7.76142 10 5 10C2.23858 10 0 7.76142 0 5C0 2.23858 2.23858 0 5 0ZM55 0C57.7614 0 60 2.23858 60 5C60 7.76142 57.7614 10 55 10C52.2386 10 50 7.76142 50 5C50 2.23858 52.2386 0 55 0ZM75 0C77.7614 0 80 2.23858 80 5C80 7.76142 77.7614 10 75 10C72.2386 10 70 7.76142 70 5C70 2.23858 72.2386 0 75 0ZM95 0C97.7614 0 100 2.23858 100 5C100 7.76142 97.7614 10 95 10C92.2386 10 90 7.76142 90 5C90 2.23858 92.2386 0 95 0ZM115 0C117.761 0 120 2.23858 120 5C120 7.76142 117.761 10 115 10C112.239 10 110 7.76142 110 5C110 2.23858 112.239 0 115 0Z" fill="var(--fill-0, white)" fill-opacity="0.5"/>
<rect id="Rectangle 40127" x="20" width="20" height="10" rx="5" fill="var(--fill-0, white)"/>
</g>
</svg>
