<svg width="32" height="32" viewBox="0 0 32 32" fill="none" xmlns="http://www.w3.org/2000/svg">
<path d="M0.999878 14.6667C0.999878 7.1188 7.11868 1 14.6665 1C21.9957 1 27.9774 6.76933 28.3179 14.0143C26.6939 12.9513 24.7524 12.3333 22.6665 12.3333C16.9596 12.3333 12.3332 16.9597 12.3332 22.6667C12.3332 24.7525 12.9512 26.694 14.0141 28.318C11.6797 28.2083 9.49768 27.5126 7.61288 26.3747C6.22504 26.9332 4.63195 27.5137 3.17438 27.9183C2.06974 28.2251 1.07428 27.2755 1.35406 26.1551C1.73174 24.6425 2.313 23.0075 2.89051 21.6065C1.68915 19.5721 0.999878 17.1994 0.999878 14.6667Z" fill="white"/>
<path d="M22.6668 14.3332C27.2692 14.3332 31.0002 18.0641 31.0002 22.6665C31.0002 24.2003 30.5855 25.6383 29.862 26.8732C30.1293 27.4539 30.392 28.1117 30.6037 28.8143C30.9414 29.9353 29.9215 30.9033 28.8204 30.5433C28.1528 30.325 27.52 30.0679 26.9524 29.8148C25.7 30.5673 24.2335 30.9999 22.6668 30.9999C18.0644 30.9999 14.3335 27.2689 14.3335 22.6665C14.3335 18.0641 18.0644 14.3332 22.6668 14.3332Z" fill="white"/>
</svg>
