<svg preserveAspectRatio="none" width="100%" height="100%" overflow="visible" style="display: block;" viewBox="0 0 24 24" fill="none" xmlns="http://www.w3.org/2000/svg">
<g id="Frame">
<path id="Vector" d="M22.8975 5.625C22.7895 5.55761 22.6662 5.51881 22.5391 5.51225C22.412 5.50569 22.2853 5.53159 22.1709 5.5875C18.1463 7.55625 15.2719 6.63375 12.2334 5.66063C9.0375 4.64344 5.7375 3.58875 1.17094 5.81813C1.04482 5.8797 0.938513 5.97543 0.8641 6.09442C0.789687 6.21342 0.750156 6.3509 0.75 6.49125V17.7347C0.749982 17.8619 0.782342 17.9871 0.844035 18.0984C0.905728 18.2097 0.994725 18.3035 1.10265 18.3709C1.21057 18.4383 1.33388 18.4772 1.46096 18.4838C1.58804 18.4904 1.71471 18.4646 1.82906 18.4087C5.85375 16.44 8.72812 17.3625 11.7712 18.3356C13.575 18.9122 15.4125 19.5 17.49 19.5C19.0922 19.5 20.8397 19.1512 22.8253 18.1819C22.9514 18.1203 23.0577 18.0246 23.1322 17.9056C23.2066 17.7866 23.2461 17.6491 23.2463 17.5087V6.26531C23.2474 6.13773 23.2159 6.01197 23.1549 5.89992C23.0939 5.78788 23.0053 5.69325 22.8975 5.625ZM4.5 14.25C4.5 14.4489 4.42098 14.6397 4.28033 14.7803C4.13968 14.921 3.94891 15 3.75 15C3.55109 15 3.36032 14.921 3.21967 14.7803C3.07902 14.6397 3 14.4489 3 14.25V8.25C3 8.05109 3.07902 7.86032 3.21967 7.71967C3.36032 7.57902 3.55109 7.5 3.75 7.5C3.94891 7.5 4.13968 7.57902 4.28033 7.71967C4.42098 7.86032 4.5 8.05109 4.5 8.25V14.25ZM12 15C11.4067 15 10.8266 14.8241 10.3333 14.4944C9.83994 14.1648 9.45542 13.6962 9.22836 13.1481C9.0013 12.5999 8.94189 11.9967 9.05764 11.4147C9.1734 10.8328 9.45912 10.2982 9.87868 9.87868C10.2982 9.45912 10.8328 9.1734 11.4147 9.05764C11.9967 8.94189 12.5999 9.0013 13.148 9.22836C13.6962 9.45542 14.1648 9.83994 14.4944 10.3333C14.8241 10.8266 15 11.4067 15 12C15 12.7956 14.6839 13.5587 14.1213 14.1213C13.5587 14.6839 12.7956 15 12 15ZM21 15.75C21 15.9489 20.921 16.1397 20.7803 16.2803C20.6397 16.421 20.4489 16.5 20.25 16.5C20.0511 16.5 19.8603 16.421 19.7197 16.2803C19.579 16.1397 19.5 15.9489 19.5 15.75V9.75C19.5 9.55109 19.579 9.36032 19.7197 9.21967C19.8603 9.07902 20.0511 9 20.25 9C20.4489 9 20.6397 9.07902 20.7803 9.21967C20.921 9.36032 21 9.55109 21 9.75V15.75Z" fill="var(--fill-0, #31A6FF)"/>
</g>
</svg>
