<svg preserveAspectRatio="none" width="100%" height="100%" overflow="visible" style="display: block;" viewBox="0 0 12.25 7" fill="none" xmlns="http://www.w3.org/2000/svg">
<g id="Container">
<path id="Symbol" d="M5.49609 6.75391C5.67839 6.91797 5.88802 7 6.125 7V7C6.36198 7 6.57161 6.91797 6.75391 6.75391L12.0039 1.50391C12.168 1.32161 12.25 1.11198 12.25 0.875C12.25 0.638021 12.168 0.428385 12.0039 0.246094C11.8216 0.0820312 11.612 0 11.375 0C11.138 0 10.9284 0.0820312 10.7461 0.246094L6.125 4.89453L1.50391 0.246094C1.32161 0.0820312 1.11198 0 0.875 0C0.638021 0 0.428385 0.0820312 0.246094 0.246094C0.0820312 0.428385 0 0.638021 0 0.875C0 1.11198 0.0820312 1.32161 0.246094 1.50391L5.49609 6.75391V6.75391V6.75391" fill="var(--fill-0, #ABBCD4)"/>
</g>
</svg>
