<svg preserveAspectRatio="none" width="100%" height="100%" overflow="visible" style="display: block;" viewBox="0 0 28 28" fill="none" xmlns="http://www.w3.org/2000/svg">
<g id="chat-bubble.svg" clip-path="url(#clip0_664_13245)">
<path id="Vector" d="M0.874893 12.8334C0.874893 6.22895 6.22884 0.875 12.8332 0.875C19.2462 0.875 24.4802 5.92316 24.7782 12.2625C23.3572 11.3324 21.6583 10.7916 19.8332 10.7916C14.8396 10.7916 10.7915 14.8397 10.7915 19.8334C10.7915 21.6584 11.3323 23.3572 12.2623 24.7782C10.2197 24.6823 8.31047 24.0735 6.66127 23.0779C5.44691 23.5665 4.05296 24.0745 2.77758 24.4285C1.81102 24.697 0.939995 23.8661 1.1848 22.8857C1.51527 21.5622 2.02387 20.1316 2.5292 18.9057C1.47801 17.1256 0.874893 15.0495 0.874893 12.8334V12.8334" fill="var(--fill-0, white)"/>
<path id="Vector_2" d="M19.8335 12.5415C23.8606 12.5415 27.1252 15.8061 27.1252 19.8332C27.1252 21.1753 26.7623 22.4335 26.1293 23.514C26.3631 24.0222 26.593 24.5977 26.7782 25.2125C27.0737 26.1934 26.1813 27.0404 25.2179 26.7254C24.6337 26.5344 24.08 26.3094 23.5834 26.0879C22.4875 26.7464 21.2043 27.1249 19.8335 27.1249C15.8064 27.1249 12.5418 23.8603 12.5418 19.8332C12.5418 15.8061 15.8064 12.5415 19.8335 12.5415V12.5415" fill="var(--fill-0, white)"/>
</g>
<defs>
<clipPath id="clip0_664_13245">
<rect width="28" height="28" fill="white"/>
</clipPath>
</defs>
</svg>
