<svg preserveAspectRatio="none" width="100%" height="100%" overflow="visible" style="display: block;" viewBox="0 0 12 12" fill="none" xmlns="http://www.w3.org/2000/svg">
<g id="Frame">
<path id="Vector" d="M9.75051 3.68559C9.96624 3.6856 10.1732 3.77132 10.3257 3.92387C10.4782 4.07642 10.564 4.28332 10.564 4.49906C10.564 4.7148 10.4782 4.92171 10.3257 5.07426L10.2974 5.10258L10.2954 5.10356L6.57473 8.82426C6.49927 8.89996 6.40976 8.96002 6.31106 9.00102C6.2123 9.04202 6.10647 9.06352 5.99953 9.06352C5.89259 9.06352 5.78677 9.04202 5.68801 9.00102C5.5893 8.96002 5.49979 8.89996 5.42434 8.82426L1.67434 5.07426C1.52193 4.92172 1.43606 4.7147 1.43606 4.49906C1.43618 4.28348 1.52189 4.07631 1.67434 3.92387C1.82687 3.77146 2.0339 3.68559 2.24953 3.68559C2.46517 3.68559 2.67219 3.77146 2.82473 3.92387L5.99953 7.09867L9.17531 3.92387C9.32787 3.77132 9.53477 3.68559 9.75051 3.68559Z" fill="var(--fill-0, white)" stroke="var(--stroke-0, white)" stroke-width="0.5"/>
</g>
</svg>
