<svg preserveAspectRatio="none" width="100%" height="100%" overflow="visible" style="display: block;" viewBox="0 0 7 4" fill="none" xmlns="http://www.w3.org/2000/svg">
<path id="Symbol" d="M3.85938 0.140625C3.75521 0.046875 3.63542 1.18385e-08 3.5 0C3.36458 -1.18385e-08 3.24479 0.046875 3.14063 0.140625L0.140625 3.14062C0.046875 3.24479 1.18385e-08 3.36458 0 3.5C-1.18385e-08 3.63542 0.046875 3.75521 0.140625 3.85937C0.244792 3.95312 0.364583 4 0.5 4C0.635417 4 0.755208 3.95312 0.859375 3.85937L3.5 1.20312L6.14063 3.85938C6.24479 3.95313 6.36458 4 6.5 4C6.63542 4 6.75521 3.95313 6.85938 3.85938C6.95313 3.75521 7 3.63542 7 3.5C7 3.36458 6.95313 3.24479 6.85938 3.14063L3.85938 0.140625Z" fill="var(--fill-0, #ABBCD4)"/>
</svg>
