<svg preserveAspectRatio="none" width="100%" height="100%" overflow="visible" style="display: block;" viewBox="0 0 31.793 20.0576" fill="none" xmlns="http://www.w3.org/2000/svg">
<path id="Subtract" d="M15.8879 0C16.4685 0 16.9903 0.316042 17.2814 0.84375C19.2088 4.34094 21.1365 7.84032 23.0627 11.3389L29.8293 6.5625C30.04 6.41473 30.2832 6.33595 30.5314 6.33594C30.9777 6.33594 31.3959 6.59016 31.6222 7L31.6242 7.00098C31.8493 7.40946 31.8493 7.89957 31.6242 8.31348L25.4279 19.6826C25.3011 19.9133 25.075 20.0518 24.8215 20.0518C24.5693 20.0517 24.3447 19.9148 24.2179 19.6855L24.0382 19.3584C23.6153 18.5918 23.1942 17.8242 22.7726 17.0576L22.0832 15.8008L16.4933 19.7432C16.3149 19.8692 16.1066 19.9355 15.8908 19.9355C15.6749 19.9355 15.4667 19.8692 15.2882 19.7432C14.0814 18.8909 10.8326 16.5986 9.70719 15.8047L7.5695 19.6914C7.44272 19.9207 7.21753 20.0576 6.96403 20.0576C6.71051 20.0576 6.48307 19.9191 6.35758 19.6885L0.170085 8.33887C-0.0573251 7.92377 -0.0560638 7.43017 0.170085 7.02051C0.396447 6.60798 0.816947 6.35257 1.26579 6.35254C1.51537 6.35254 1.75877 6.43089 1.97087 6.58008L8.71891 11.3428L14.4943 0.845703C14.7853 0.316599 15.3072 0.000166293 15.8879 0ZM16.7677 7.73438C16.386 7.05134 15.4031 7.05115 15.0216 7.73438L13.6476 10.1973C13.397 10.6463 13.5281 11.2124 13.9504 11.5059L15.3244 12.4609C15.6673 12.699 16.1221 12.699 16.465 12.4609L17.841 11.5039C18.2635 11.2103 18.3947 10.6444 18.1437 10.1953L16.7677 7.73438Z" fill="var(--fill-0, white)"/>
</svg>
