<svg preserveAspectRatio="none" width="100%" height="100%" overflow="visible" style="display: block;" viewBox="0 0 149.184 21.688" fill="none" xmlns="http://www.w3.org/2000/svg">
<g id="neKiNG">
<path id="Vector" d="M126.305 15.048C126.305 16.1306 127.171 16.9967 128.254 16.9967H134.641H142.544C143.627 16.9967 144.529 16.1306 144.529 15.048V13.1716H130.13V8.5164H146.875H149.184V15.048C149.184 18.6928 146.189 21.688 142.544 21.688H134.641H128.254C124.609 21.688 121.65 18.6928 121.65 15.048V6.63991C121.65 2.99518 124.609 0 128.254 0H134.641H142.544C146.189 0 149.184 2.99518 149.184 6.63991V7.00077H144.529V6.63991C144.529 5.55731 143.627 4.69124 142.544 4.69124H134.641H128.254C127.171 4.69124 126.305 5.55731 126.305 6.63991V15.048Z" fill="var(--fill-0, white)"/>
<path id="Vector_2" d="M113.167 15.1202V0H117.858V19.7032V21.6519H113.203H113.167L97.8664 6.56773V21.6519H93.2113V1.98475V0H97.8303L97.8664 0.0360862L113.167 15.1202Z" fill="var(--fill-0, white)"/>
<path id="Vector_3" d="M84.7532 0H89.4084V21.6519H84.7532V0Z" fill="var(--fill-0, white)"/>
<path id="Vector_4" d="M80.9609 21.6519H74.8623L66.7068 11.9446L60.969 16.7802V21.6519H56.3139V0H60.969V10.7177L73.7075 0H80.9609L70.2793 8.94944L80.9609 21.6519Z" fill="var(--fill-0, white)"/>
<path id="Vector_5" d="M28.4393 21.6519V16.9967H52.4729V21.6519H28.4393ZM28.4393 13.1716V8.5164H52.4729V13.1716H28.4393ZM28.4393 4.69124V0H52.4729V4.69124H28.4393Z" fill="var(--fill-0, white)"/>
<path id="Vector_6" d="M19.9558 15.1203V8.23385e-05H24.647V19.7033V21.652H19.9918H19.9558L4.65514 6.56782V21.652H0V1.98484V8.23385e-05H4.61906L4.65514 0.0361686L19.9558 15.1203Z" fill="var(--fill-0, white)"/>
</g>
</svg>
