<svg preserveAspectRatio="none" width="100%" height="100%" overflow="visible" style="display: block;" viewBox="0 0 268.531 39.0384" fill="none" xmlns="http://www.w3.org/2000/svg">
<g id="neKiNG">
<path id="Vector" d="M227.35 27.0865C227.35 29.0352 228.909 30.5941 230.857 30.5941H242.354H256.58C258.528 30.5941 260.152 29.0352 260.152 27.0865V23.7088H234.235V15.3295H264.374H268.531V27.0865C268.531 33.647 263.14 39.0383 256.58 39.0383H242.354H230.857C224.297 39.0383 218.97 33.647 218.97 27.0865V11.9518C218.97 5.39132 224.297 0 230.857 0H242.354H256.58C263.14 0 268.531 5.39132 268.531 11.9518V12.6014H260.152V11.9518C260.152 10.0032 258.528 8.44423 256.58 8.44423H242.354H230.857C228.909 8.44423 227.35 10.0032 227.35 11.9518V27.0865Z" fill="var(--fill-0, white)"/>
<path id="Vector_2" d="M203.701 27.2164V0H212.145V35.4658V38.9734H203.766H203.701L176.159 11.8219V38.9734H167.78V3.57256V0H176.095L176.159 0.0649552L203.701 27.2164Z" fill="var(--fill-0, white)"/>
<path id="Vector_3" d="M152.556 0H160.935V38.9734H152.556V0Z" fill="var(--fill-0, white)"/>
<path id="Vector_4" d="M145.73 38.9734H134.752L120.072 21.5003L109.744 30.2044V38.9734H101.365V0H109.744V19.2918L132.674 0H145.73L126.503 16.109L145.73 38.9734Z" fill="var(--fill-0, white)"/>
<path id="Vector_5" d="M51.1908 38.9734V30.5941H94.4511V38.9734H51.1908ZM51.1908 23.7088V15.3295H94.4511V23.7088H51.1908ZM51.1908 8.44423V0H94.4511V8.44423H51.1908Z" fill="var(--fill-0, white)"/>
<path id="Vector_6" d="M35.9204 27.2164V0H44.3646V35.4658V38.9734H35.9853H35.9204L8.37926 11.8219V38.9734H0V3.57256V0H8.3143L8.37926 0.0649552L35.9204 27.2164Z" fill="var(--fill-0, white)"/>
</g>
</svg>
