<svg preserveAspectRatio="none" width="100%" height="100%" overflow="visible" style="display: block;" viewBox="0 0 40 40" fill="none" xmlns="http://www.w3.org/2000/svg">
<g id="Frame">
<path id="Vector" d="M37.1781 16.7516C37.1433 16.5755 37.071 16.4091 36.9661 16.2635C36.8612 16.1179 36.7262 15.9966 36.5703 15.9078L31.9094 13.2516L31.8906 7.99844C31.8901 7.81752 31.8502 7.63889 31.7739 7.47487C31.6975 7.31085 31.5865 7.16535 31.4484 7.04844C29.7577 5.61828 27.8107 4.52229 25.7109 3.81875C25.5456 3.76278 25.3703 3.74207 25.1965 3.75795C25.0226 3.77382 24.854 3.82594 24.7016 3.91094L20 6.53906L15.2937 3.90625C15.1412 3.82077 14.9724 3.76826 14.7982 3.75212C14.6241 3.73597 14.4485 3.75654 14.2828 3.8125C12.1843 4.52056 10.2394 5.62079 8.55156 7.05469C8.4137 7.17143 8.30278 7.31667 8.22644 7.48041C8.15011 7.64414 8.11017 7.82247 8.10938 8.00313L8.08594 13.2609L3.425 15.9172C3.26906 16.006 3.13407 16.1273 3.02919 16.2729C2.92431 16.4185 2.852 16.5849 2.81719 16.7609C2.39062 18.9045 2.39062 21.1111 2.81719 23.2547C2.852 23.4307 2.92431 23.5972 3.02919 23.7428C3.13407 23.8884 3.26906 24.0097 3.425 24.0984L8.08594 26.7547L8.10469 32.0094C8.10525 32.1903 8.14508 32.3689 8.22143 32.5329C8.29777 32.697 8.40881 32.8425 8.54688 32.9594C10.2376 34.3895 12.1846 35.4855 14.2844 36.1891C14.4497 36.245 14.625 36.2657 14.7988 36.2499C14.9727 36.234 15.1413 36.1819 15.2937 36.0969L20 33.4609L24.7062 36.0938C24.8925 36.1975 25.1024 36.2513 25.3156 36.25C25.4521 36.25 25.5878 36.2278 25.7172 36.1844C27.8152 35.4766 29.7599 34.3775 31.4484 32.9453C31.5863 32.8286 31.6972 32.6833 31.7736 32.5196C31.8499 32.3559 31.8898 32.1775 31.8906 31.9969L31.9141 26.7391L36.575 24.0828C36.7309 23.994 36.8659 23.8727 36.9708 23.7271C37.0757 23.5816 37.148 23.4151 37.1828 23.2391C37.607 21.0972 37.6054 18.8928 37.1781 16.7516ZM20 26.25C18.7639 26.25 17.5555 25.8834 16.5277 25.1967C15.4999 24.5099 14.6988 23.5338 14.2258 22.3918C13.7527 21.2497 13.6289 19.9931 13.8701 18.7807C14.1112 17.5683 14.7065 16.4547 15.5806 15.5806C16.4547 14.7065 17.5683 14.1112 18.7807 13.8701C19.9931 13.6289 21.2497 13.7527 22.3918 14.2258C23.5338 14.6988 24.5099 15.4999 25.1967 16.5277C25.8834 17.5555 26.25 18.7639 26.25 20C26.25 21.6576 25.5915 23.2473 24.4194 24.4194C23.2473 25.5915 21.6576 26.25 20 26.25Z" fill="var(--fill-0, white)"/>
</g>
</svg>
