<svg width="16" height="16" viewBox="0 0 16 16" fill="none" xmlns="http://www.w3.org/2000/svg">
<path d="M4.99731 2.99902C4.99741 2.73362 5.10259 2.47872 5.29028 2.29102C5.47798 2.10332 5.73285 1.99812 5.99829 1.99802C6.26368 1.99802 6.51855 2.10342 6.70629 2.29102L6.73559 2.32032V2.32222L11.7063 7.29296L11.7073 7.29199C11.8005 7.38489 11.8746 7.49563 11.9251 7.61718C11.9755 7.73868 12.0013 7.86941 12.0013 8.00097C12.0012 8.13231 11.9754 8.26246 11.9251 8.38378C11.8873 8.47476 11.836 8.55991 11.7737 8.63574L11.7073 8.70898L6.70727 13.709C6.51951 13.8967 6.26474 14.0019 5.99926 14.002C5.73378 14.002 5.47902 13.8967 5.29125 13.709C5.10355 13.5213 4.99837 13.2664 4.99829 13.001C4.99829 12.7355 5.10357 12.4807 5.29125 12.293L9.58325 8.00097L5.29028 3.70702C5.10272 3.51932 4.99731 3.26442 4.99731 2.99902Z" fill="#7881B0" stroke="#7881B0" stroke-width="0.5"/>
</svg>
