<svg width="16" height="16" viewBox="0 0 16 16" fill="none" xmlns="http://www.w3.org/2000/svg">
<path d="M12.0012 2.99902C12.0011 2.73362 11.8959 2.47872 11.7083 2.29102C11.5206 2.10332 11.2657 1.99812 11.0002 1.99802C10.7349 1.99802 10.48 2.10342 10.2922 2.29102L10.2629 2.32032V2.32222L5.29227 7.29296L5.29127 7.29199C5.19807 7.38489 5.12397 7.49563 5.07347 7.61718C5.02307 7.73868 4.99727 7.86941 4.99727 8.00097C4.99737 8.13231 5.02317 8.26246 5.07347 8.38378C5.11127 8.47476 5.16257 8.55991 5.22487 8.63574L5.29127 8.70898L10.2913 13.709C10.479 13.8967 10.7338 14.0019 10.9993 14.002C11.2648 14.002 11.5195 13.8967 11.7073 13.709C11.895 13.5213 12.0002 13.2664 12.0002 13.001C12.0002 12.7355 11.895 12.4807 11.7073 12.293L7.41528 8.00097L11.7083 3.70702C11.8958 3.51932 12.0012 3.26442 12.0012 2.99902Z" fill="white" stroke="white" stroke-width="0.5"/>
</svg>
